<?xml version="1.0" encoding="utf-8"?>
<!-- Generator: Adobe Illustrator 24.1.1, SVG Export Plug-In . SVG Version: 6.00 Build 0)  -->
<svg version="1.1" id="Capa_1" xmlns="http://www.w3.org/2000/svg" xmlns:xlink="http://www.w3.org/1999/xlink" x="0px" y="0px"
	 viewBox="0 0 170 35" style="enable-background:new 0 0 170 35;" xml:space="preserve">
<style type="text/css">
	.st0{fill:#382D71;}
	.st1{fill:#FFFFFF;}
	.st2{fill:#E23221;}
</style>
<g>
	<g>
		<path class="st0" d="M96.66,9.77L79.39,9.84l-1.78,4.48h1.92c0,0,1.07,0.35,0.64,1.49l-6.61,16.48h6.54l2.56-6.18h7.89
			c0,0,3.84-0.07,5.97-3.77l3.55-8.81C100.07,13.53,101.21,10.55,96.66,9.77z M92.61,16.09l-1.85,4.19c0,0-0.35,1.14-2.13,1.14
			l-4.19-0.14l2.7-6.75h4.55C91.69,14.53,92.96,14.53,92.61,16.09z"/>
		<path class="st1" d="M91.69,14.53h-4.55l-2.7,6.75l4.19,0.14c1.78,0,2.13-1.14,2.13-1.14l1.85-4.19
			C92.96,14.53,91.69,14.53,91.69,14.53z"/>
	</g>
	<g>
		<path class="st0" d="M118.83,18.93l3.69-9.09h-13.64c0,0-5.47,0.57-6.96,4.12L99,20.92c0,0-1.42,4.55,2.49,4.9h17.62l1.85-4.4
			C120.96,21.42,117.62,21.85,118.83,18.93z M111.51,21.42h-4.76c0,0-0.99-0.14-0.5-1.85c0,0,1.49-5.12,3.63-5.26l4.19,0.14
			L111.51,21.42z"/>
		<path class="st1" d="M106.25,19.57c-0.5,1.71,0.5,1.85,0.5,1.85h4.76l2.56-6.96l-4.19-0.14
			C107.74,14.46,106.25,19.57,106.25,19.57z"/>
	</g>
	<g>
		<path class="st0" d="M142.45,14.57l-2.42-2.59c-1.01-0.92,0.09-1.85,0.09-1.85l1.19-0.84l-3.03-3.25
			c-9.1,4.57-16.52,9.62-16.52,9.62c-1.41,1.71-0.09,3.69-0.09,3.69l5.76,5.98c0.57,1.63-1.1,1.98-1.1,1.98l-4.09-0.04l-2.02,4.44
			c1.05,0,7.3-0.09,7.3-0.09c5.67-2.86,7.25-5.14,7.25-5.14c1.01-1.41-0.04-2.86-0.04-2.86c-0.75-0.92,0.48-1.32,0.48-1.32
			c4.7-2.59,6.9-4.7,6.9-4.7C143.29,16.15,142.45,14.57,142.45,14.57z M135.6,16.94l-4.92,3.12c-0.75,0.4-1.19-0.13-1.19-0.13
			l-1.98-2.24c-0.53-0.66,0.31-1.63,0.31-1.63l3.78-2.42c1.67-0.7,2.33,0.04,2.33,0.04l1.67,1.63
			C136.17,16.2,135.6,16.94,135.6,16.94z"/>
		<path class="st1" d="M133.93,13.69c0,0-0.66-0.75-2.33-0.04l-3.78,2.42c0,0-0.83,0.97-0.31,1.63l1.98,2.24
			c0,0,0.44,0.53,1.19,0.13l4.92-3.12c0,0,0.57-0.75,0-1.63L133.93,13.69z"/>
	</g>
	<g>
		<path class="st0" d="M166.88,15.13c0,0-4.92-4.88-6.11-5.36c0,0-2.64-1.19-5.19,0.04c0,0-7.73,3.87-11.34,6.28
			c0,0-2.24,1.71-1.41,3.91c0,0,4.57,5.32,5.98,5.98c0,0,1.76,1.23,4.83,0.31c0,0,8.79-3.38,13.18-7.56
			C166.84,18.73,168.16,17.24,166.88,15.13z M159.59,18.38c-0.04,0.22-4.44,2.55-4.44,2.55c-1.41,0.75-2.42,0.09-2.42,0.09
			c-0.7-0.4-2.11-2.11-2.11-2.11c-0.53-0.57,0.04-1.41,0.04-1.41c0.88-0.88,4.62-2.77,4.62-2.77c0.88-0.57,2.28,0.13,2.28,0.13
			l2.02,1.85C160.42,17.5,159.59,18.38,159.59,18.38z"/>
		<path class="st1" d="M157.57,14.86c0,0-1.4-0.7-2.28-0.13c0,0-3.74,1.89-4.62,2.77c0,0-0.57,0.83-0.04,1.41
			c0,0,1.41,1.71,2.11,2.11c0,0,1.01,0.66,2.42-0.09c0,0,4.39-2.33,4.44-2.55c0,0,0.83-0.88,0-1.67L157.57,14.86z"/>
	</g>
	<path class="st2" d="M76.66,9.85h-6.5c0,0-4.13,10.06-4.53,11.43c0,0-0.79,2.46,0.4,3.43c0,0,1.28,1.27,2.68,1.27l4.53-0.04
		l1.93-4.48h-1.45c0,0-1.67-0.35-0.97-1.93L76.66,9.85z"/>
	<path class="st2" d="M73.67,3.35c0,0,2.42-0.79,3.78,0.13c0,0,1.76,1.05,0.35,2.94c0,0-1.1,1.85-4.13,1.89c0,0-2.55,0.31-2.73-1.8
		C70.95,6.51,70.82,4.36,73.67,3.35z"/>
	<g>
		<path class="st2" d="M65.24,10.86c0,0-0.88-0.97-3.08-1.14L45.59,9.77l-1.71,4.57h1.41c0,0,1.54,0,0.66,2.24l-6.15,15.73
			l6.46,0.04l2.37-6.46l8.39,0.04c0,0,2.42,0.26,4.61-2.42c0,0,3.34-5.32,4.22-9.32C65.85,14.2,66.69,12.01,65.24,10.86z
			 M58.51,16.18c0,0.88-1.67,4.04-1.67,4.04c-0.83,1.14-2.2,1.14-2.2,1.14h-4.17l2.81-6.81h4.35C59.13,14.6,58.51,16.18,58.51,16.18
			z"/>
		<path class="st1" d="M57.63,14.56h-4.35l-2.81,6.81h4.17c0,0,1.36,0,2.2-1.14c0,0,1.67-3.16,1.67-4.04
			C58.51,16.18,59.13,14.6,57.63,14.56z"/>
	</g>
	<path class="st2" d="M40.05,18.77l3.65-9.01l-13.1-0.04c-1.98,0-4.17,1.01-4.17,1.01c-2.55,1.23-3.12,2.99-3.12,2.99
		c-0.97,1.45-2.94,7.03-2.94,7.03c-1.14,2.77,0,3.74,0,3.74c1.1,1.54,3.21,1.49,3.21,1.49l16.79,0.04l1.85-4.44l-2.07-0.35
		C39.13,20.75,40.05,18.77,40.05,18.77z M32.67,21.28l-4.35,0.09c0,0-1.58-0.09-0.88-2.15c0,0,0.79-2.77,1.67-3.69
		c0,0,0.57-1.05,2.29-1.05l3.82,0.09L32.67,21.28z"/>
	<path class="st2" d="M22.92,9.81l-1.93,4.66h-5.14c0,0-1.41-0.26-2.29,1.71l-3.82,9.76l-6.59,0.09L9.56,9.77L22.92,9.81z"/>
</g>
</svg>
